<svg xmlns="http://www.w3.org/2000/svg" xmlns:xlink="http://www.w3.org/1999/xlink" width="256" zoomAndPan="magnify" viewBox="0 0 192 191.999996" height="256" preserveAspectRatio="xMidYMid meet" version="1.0"><defs><g/><clipPath id="0acaa5eacf"><path d="M 46.023438 33.273438 L 145.773438 33.273438 L 145.773438 107.523438 L 46.023438 107.523438 Z M 46.023438 33.273438 " clip-rule="nonzero"/></clipPath></defs><rect x="-19.2" width="230.4" fill="#ffffff" y="-19.2" height="230.399995" fill-opacity="1"/><rect x="-19.2" width="230.4" fill="#daf2ff" y="-19.2" height="230.399995" fill-opacity="1"/><g clip-path="url(#0acaa5eacf)"><path fill="#1079f7" d="M 56.347656 92.050781 C 52.703125 88.410156 50.449219 83.378906 50.449219 77.820312 C 50.449219 72.261719 52.703125 67.234375 56.347656 63.589844 C 59.992188 59.949219 65.027344 57.695312 70.589844 57.695312 C 71.089844 57.695312 71.554688 57.710938 71.976562 57.742188 C 72.46875 57.773438 72.929688 57.820312 73.363281 57.878906 L 75.628906 58.191406 L 75.851562 55.902344 C 76.347656 50.785156 78.765625 46.226562 82.371094 42.957031 C 85.941406 39.722656 90.6875 37.753906 95.902344 37.753906 C 101.117188 37.753906 105.863281 39.722656 109.433594 42.957031 C 112.363281 45.613281 114.507812 49.121094 115.476562 53.085938 L 118.960938 49.433594 C 117.578125 45.667969 115.300781 42.335938 112.386719 39.695312 C 108.019531 35.75 102.238281 33.339844 95.898438 33.339844 C 89.5625 33.339844 83.777344 35.75 79.414062 39.699219 C 75.535156 43.214844 72.785156 47.957031 71.773438 53.3125 L 70.589844 53.277344 C 63.808594 53.277344 57.664062 56.027344 53.222656 60.46875 C 48.773438 64.910156 46.023438 71.046875 46.023438 77.824219 C 46.023438 84.601562 48.773438 90.738281 53.21875 95.179688 C 53.289062 95.25 53.359375 95.316406 53.429688 95.386719 L 56.492188 92.199219 C 56.445312 92.152344 56.394531 92.101562 56.347656 92.050781 M 137.46875 49.886719 C 137.375 51.101562 136.308594 52.011719 135.09375 51.917969 C 133.878906 51.820312 132.96875 50.757812 133.0625 49.542969 L 133.433594 44.835938 L 125.082031 53.582031 C 126.195312 53.757812 127.289062 54.011719 128.351562 54.332031 C 132.261719 55.519531 135.761719 57.652344 138.582031 60.46875 C 143.027344 64.90625 145.777344 71.046875 145.777344 77.820312 C 145.777344 84.597656 143.027344 90.734375 138.582031 95.175781 C 134.136719 99.617188 127.996094 102.363281 121.214844 102.363281 L 70.585938 102.363281 C 67.652344 102.363281 64.839844 101.851562 62.230469 100.90625 C 61.261719 100.554688 60.320312 100.144531 59.414062 99.683594 L 52.820312 106.550781 C 51.976562 107.425781 50.578125 107.453125 49.703125 106.613281 C 48.824219 105.765625 48.796875 104.371094 49.640625 103.496094 L 86.683594 64.902344 C 87.488281 64.066406 88.824219 63.996094 89.714844 64.765625 L 99.902344 73.566406 L 129.699219 42.363281 L 126.351562 43.03125 C 125.152344 43.269531 123.988281 42.492188 123.75 41.296875 C 123.511719 40.101562 124.289062 38.9375 125.484375 38.699219 L 135.691406 36.65625 L 135.691406 36.660156 C 135.886719 36.621094 136.089844 36.609375 136.296875 36.625 C 137.511719 36.71875 138.421875 37.78125 138.328125 38.996094 Z M 137.46875 49.886719 " fill-opacity="1" fill-rule="nonzero"/></g><g fill="#1079f7" fill-opacity="1"><g transform="translate(17.303254, 138.220213)"><g><path d="M 19.015625 -17.234375 L 7.625 -17.234375 L 7.625 -12.953125 L 17.90625 -12.953125 L 17.90625 -8.640625 L 7.625 -8.640625 L 7.625 -4.3125 L 19.34375 -4.3125 L 19.34375 0 L 2.15625 0 L 2.15625 -21.53125 L 19.015625 -21.53125 Z M 19.015625 -17.234375 "/></g></g></g><g fill="#1079f7" fill-opacity="1"><g transform="translate(38.036357, 138.220213)"><g><path d="M 16.453125 -3.96875 L 7.046875 -3.96875 L 5.46875 0 L -0.15625 0 L 9.140625 -21.53125 L 14.765625 -21.53125 L 23.84375 0 L 18 0 Z M 14.859375 -8.125 L 11.78125 -16.09375 L 8.640625 -8.125 Z M 14.859375 -8.125 "/></g></g></g><g fill="#1079f7" fill-opacity="1"><g transform="translate(61.722537, 138.220213)"><g><path d="M 10.421875 -21.78125 C 13.648438 -21.78125 16.484375 -20.976562 18.921875 -19.375 L 16.859375 -15.109375 C 15.734375 -15.765625 14.523438 -16.300781 13.234375 -16.71875 C 11.941406 -17.144531 10.851562 -17.359375 9.96875 -17.359375 C 8.382812 -17.359375 7.59375 -16.832031 7.59375 -15.78125 C 7.59375 -15.101562 7.984375 -14.554688 8.765625 -14.140625 C 9.546875 -13.734375 10.492188 -13.378906 11.609375 -13.078125 C 12.734375 -12.785156 13.851562 -12.429688 14.96875 -12.015625 C 16.082031 -11.597656 17.03125 -10.914062 17.8125 -9.96875 C 18.59375 -9.019531 18.984375 -7.832031 18.984375 -6.40625 C 18.984375 -4.332031 18.171875 -2.710938 16.546875 -1.546875 C 14.929688 -0.390625 12.875 0.1875 10.375 0.1875 C 8.582031 0.1875 6.816406 -0.117188 5.078125 -0.734375 C 3.335938 -1.347656 1.816406 -2.191406 0.515625 -3.265625 L 2.640625 -7.46875 C 3.734375 -6.53125 5.015625 -5.757812 6.484375 -5.15625 C 7.960938 -4.550781 9.273438 -4.25 10.421875 -4.25 C 11.304688 -4.25 11.992188 -4.40625 12.484375 -4.71875 C 12.984375 -5.039062 13.234375 -5.507812 13.234375 -6.125 C 13.234375 -6.71875 12.945312 -7.210938 12.375 -7.609375 C 11.8125 -8.015625 11.109375 -8.3125 10.265625 -8.5 C 9.429688 -8.695312 8.519531 -8.957031 7.53125 -9.28125 C 6.550781 -9.613281 5.640625 -9.972656 4.796875 -10.359375 C 3.953125 -10.753906 3.25 -11.375 2.6875 -12.21875 C 2.125 -13.070312 1.84375 -14.097656 1.84375 -15.296875 C 1.84375 -17.265625 2.625 -18.835938 4.1875 -20.015625 C 5.757812 -21.191406 7.835938 -21.78125 10.421875 -21.78125 Z M 10.421875 -21.78125 "/></g></g></g><g fill="#1079f7" fill-opacity="1"><g transform="translate(81.532795, 138.220213)"><g><path d="M 13.265625 -6.953125 L 13.265625 0 L 7.8125 0 L 7.8125 -6.796875 L -0.15625 -21.53125 L 5.328125 -21.53125 L 10.515625 -12.15625 L 15.59375 -21.53125 L 21.078125 -21.53125 Z M 13.265625 -6.953125 "/></g></g></g><g fill="#1079f7" fill-opacity="1"><g transform="translate(102.45046, 138.220213)"><g/></g></g><g fill="#1079f7" fill-opacity="1"><g transform="translate(109.587074, 138.220213)"><g><path d="M 10.421875 -21.78125 C 13.648438 -21.78125 16.484375 -20.976562 18.921875 -19.375 L 16.859375 -15.109375 C 15.734375 -15.765625 14.523438 -16.300781 13.234375 -16.71875 C 11.941406 -17.144531 10.851562 -17.359375 9.96875 -17.359375 C 8.382812 -17.359375 7.59375 -16.832031 7.59375 -15.78125 C 7.59375 -15.101562 7.984375 -14.554688 8.765625 -14.140625 C 9.546875 -13.734375 10.492188 -13.378906 11.609375 -13.078125 C 12.734375 -12.785156 13.851562 -12.429688 14.96875 -12.015625 C 16.082031 -11.597656 17.03125 -10.914062 17.8125 -9.96875 C 18.59375 -9.019531 18.984375 -7.832031 18.984375 -6.40625 C 18.984375 -4.332031 18.171875 -2.710938 16.546875 -1.546875 C 14.929688 -0.390625 12.875 0.1875 10.375 0.1875 C 8.582031 0.1875 6.816406 -0.117188 5.078125 -0.734375 C 3.335938 -1.347656 1.816406 -2.191406 0.515625 -3.265625 L 2.640625 -7.46875 C 3.734375 -6.53125 5.015625 -5.757812 6.484375 -5.15625 C 7.960938 -4.550781 9.273438 -4.25 10.421875 -4.25 C 11.304688 -4.25 11.992188 -4.40625 12.484375 -4.71875 C 12.984375 -5.039062 13.234375 -5.507812 13.234375 -6.125 C 13.234375 -6.71875 12.945312 -7.210938 12.375 -7.609375 C 11.8125 -8.015625 11.109375 -8.3125 10.265625 -8.5 C 9.429688 -8.695312 8.519531 -8.957031 7.53125 -9.28125 C 6.550781 -9.613281 5.640625 -9.972656 4.796875 -10.359375 C 3.953125 -10.753906 3.25 -11.375 2.6875 -12.21875 C 2.125 -13.070312 1.84375 -14.097656 1.84375 -15.296875 C 1.84375 -17.265625 2.625 -18.835938 4.1875 -20.015625 C 5.757812 -21.191406 7.835938 -21.78125 10.421875 -21.78125 Z M 10.421875 -21.78125 "/></g></g></g><g fill="#1079f7" fill-opacity="1"><g transform="translate(129.397332, 138.220213)"><g><path d="M 14 0 L 8.34375 0 L -0.03125 -21.53125 L 5.8125 -21.53125 L 11.328125 -5.6875 L 16.828125 -21.53125 L 22.453125 -21.53125 Z M 14 0 "/></g></g></g><g fill="#1079f7" fill-opacity="1"><g transform="translate(151.822297, 138.220213)"><g><path d="M 16.453125 -10.953125 L 21.203125 -10.953125 L 21.203125 -2.546875 C 20.023438 -1.734375 18.609375 -1.0625 16.953125 -0.53125 C 15.304688 -0.0078125 13.738281 0.25 12.25 0.25 C 8.96875 0.25 6.226562 -0.800781 4.03125 -2.90625 C 1.832031 -5.007812 0.734375 -7.628906 0.734375 -10.765625 C 0.734375 -13.878906 1.859375 -16.484375 4.109375 -18.578125 C 6.367188 -20.671875 9.203125 -21.71875 12.609375 -21.71875 C 14.210938 -21.71875 15.800781 -21.429688 17.375 -20.859375 C 18.957031 -20.285156 20.300781 -19.503906 21.40625 -18.515625 L 18.34375 -14.796875 C 17.5625 -15.515625 16.65625 -16.082031 15.625 -16.5 C 14.601562 -16.925781 13.585938 -17.140625 12.578125 -17.140625 C 10.816406 -17.140625 9.335938 -16.523438 8.140625 -15.296875 C 6.941406 -14.078125 6.34375 -12.566406 6.34375 -10.765625 C 6.34375 -8.941406 6.945312 -7.414062 8.15625 -6.1875 C 9.363281 -4.957031 10.859375 -4.34375 12.640625 -4.34375 C 13.796875 -4.34375 15.066406 -4.691406 16.453125 -5.390625 Z M 16.453125 -10.953125 "/></g></g></g><g fill="#1079f7" fill-opacity="1"><g transform="translate(57.920026, 156.184036)"><g><path d="M 8.40625 -8.5625 L 8.40625 -3.546875 C 8.40625 -2.429688 8.070312 -1.550781 7.40625 -0.90625 C 6.75 -0.257812 5.84375 0.0625 4.6875 0.0625 C 3.53125 0.0625 2.617188 -0.257812 1.953125 -0.90625 C 1.285156 -1.550781 0.953125 -2.429688 0.953125 -3.546875 L 0.953125 -8.5625 L 2.390625 -8.5625 L 2.390625 -3.546875 C 2.390625 -2.828125 2.597656 -2.257812 3.015625 -1.84375 C 3.429688 -1.4375 3.992188 -1.234375 4.703125 -1.234375 C 5.398438 -1.234375 5.953125 -1.4375 6.359375 -1.84375 C 6.765625 -2.25 6.96875 -2.816406 6.96875 -3.546875 L 6.96875 -8.5625 Z M 8.40625 -8.5625 "/></g></g></g><g fill="#1079f7" fill-opacity="1"><g transform="translate(71.991947, 156.184036)"><g><path d="M 1.125 -8.5625 L 4.53125 -8.5625 C 5.613281 -8.5625 6.445312 -8.304688 7.03125 -7.796875 C 7.625 -7.285156 7.921875 -6.566406 7.921875 -5.640625 C 7.921875 -4.671875 7.625 -3.914062 7.03125 -3.375 C 6.445312 -2.84375 5.613281 -2.578125 4.53125 -2.578125 L 2.5625 -2.578125 L 2.5625 0 L 1.125 0 Z M 2.5625 -7.265625 L 2.5625 -3.875 L 4.484375 -3.875 C 5.859375 -3.875 6.546875 -4.453125 6.546875 -5.609375 C 6.546875 -6.710938 5.859375 -7.265625 4.484375 -7.265625 Z M 2.5625 -7.265625 "/></g></g></g><g fill="#1079f7" fill-opacity="1"><g transform="translate(84.951526, 156.184036)"><g><path d="M 2.5625 -1.3125 L 6.28125 -1.3125 L 6.28125 0 L 1.125 0 L 1.125 -8.5625 L 2.5625 -8.5625 Z M 2.5625 -1.3125 "/></g></g></g><g fill="#1079f7" fill-opacity="1"><g transform="translate(96.212038, 156.184036)"><g><path d="M 1.71875 -7.359375 C 2.59375 -8.179688 3.671875 -8.59375 4.953125 -8.59375 C 6.234375 -8.59375 7.3125 -8.179688 8.1875 -7.359375 C 9.0625 -6.535156 9.5 -5.507812 9.5 -4.28125 C 9.5 -3.0625 9.0625 -2.03125 8.1875 -1.1875 C 7.3125 -0.351562 6.234375 0.0625 4.953125 0.0625 C 3.671875 0.0625 2.59375 -0.351562 1.71875 -1.1875 C 0.851562 -2.03125 0.421875 -3.0625 0.421875 -4.28125 C 0.421875 -5.507812 0.851562 -6.535156 1.71875 -7.359375 Z M 4.96875 -7.296875 C 4.113281 -7.296875 3.382812 -7.003906 2.78125 -6.421875 C 2.1875 -5.835938 1.890625 -5.125 1.890625 -4.28125 C 1.890625 -3.4375 2.191406 -2.71875 2.796875 -2.125 C 3.398438 -1.53125 4.125 -1.234375 4.96875 -1.234375 C 5.8125 -1.234375 6.53125 -1.53125 7.125 -2.125 C 7.71875 -2.71875 8.015625 -3.4375 8.015625 -4.28125 C 8.015625 -5.125 7.71875 -5.835938 7.125 -6.421875 C 6.53125 -7.003906 5.8125 -7.296875 4.96875 -7.296875 Z M 4.96875 -7.296875 "/></g></g></g><g fill="#1079f7" fill-opacity="1"><g transform="translate(110.846245, 156.184036)"><g><path d="M 6.65625 -1.9375 L 2.34375 -1.9375 L 1.515625 0 L 0.015625 0 L 3.796875 -8.5625 L 5.265625 -8.5625 L 9.015625 0 L 7.46875 0 Z M 6.109375 -3.21875 L 4.484375 -7.015625 L 2.875 -3.21875 Z M 6.109375 -3.21875 "/></g></g></g><g fill="#1079f7" fill-opacity="1"><g transform="translate(124.600352, 156.184036)"><g><path d="M 1.125 -8.5625 L 4.640625 -8.5625 C 5.921875 -8.5625 6.976562 -8.15625 7.8125 -7.34375 C 8.644531 -6.539062 9.0625 -5.519531 9.0625 -4.28125 C 9.0625 -3.039062 8.640625 -2.015625 7.796875 -1.203125 C 6.960938 -0.398438 5.894531 0 4.59375 0 L 1.125 0 Z M 2.5625 -7.265625 L 2.5625 -1.296875 L 4.671875 -1.296875 C 5.515625 -1.296875 6.210938 -1.570312 6.765625 -2.125 C 7.328125 -2.6875 7.609375 -3.398438 7.609375 -4.265625 C 7.609375 -5.128906 7.320312 -5.84375 6.75 -6.40625 C 6.175781 -6.976562 5.460938 -7.265625 4.609375 -7.265625 Z M 2.5625 -7.265625 "/></g></g></g></svg>